Coordinates
version=1
nRows=14
nColumns=40
inDegrees=yes

Units are S.I. units (second, meters, Newtons, ...)
Angles are in degrees.

endheader
time	pelvis_tilt	pelvis_list	pelvis_rotation	pelvis_tx	pelvis_ty	pelvis_tz	hip_flexion_r	hip_adduction_r	hip_rotation_r	knee_angle_r	knee_angle_r_beta	ankle_angle_r	subtalar_angle_r	mtp_angle_r	hip_flexion_l	hip_adduction_l	hip_rotation_l	knee_angle_l	knee_angle_l_beta	ankle_angle_l	subtalar_angle_l	mtp_angle_l	lumbar_extension	lumbar_bending	lumbar_rotation	arm_flex_r	arm_add_r	arm_rot_r	elbow_flex_r	pro_sup_r	wrist_flex_r	wrist_dev_r	arm_flex_l	arm_add_l	arm_rot_l	elbow_flex_l	pro_sup_l	wrist_flex_l	wrist_dev_l
     49.97500000	     -3.82076381	     -4.74025361	     -4.63018913	      1.08239117	      0.93071454	      0.42900703	     22.95442281	     -1.90597083	    -10.09928002	     13.41550186	     13.41550186	      3.05343850	      6.80046803	      5.50870052	      3.68522378	     -6.48906444	    -15.13261655	     15.00911011	     15.00911011	     14.52368399	     -9.42194527	     -5.81661957	     -9.51348484	      5.57801374	      1.15970395	     -4.44210274	    -13.36636123	     -4.24416449	     22.99646125	     47.38079594	      0.00000000	      0.00000000	     18.19842241	    -17.12514987	     -8.79319853	     81.11485663	     47.08422576	      0.00000000	      0.00000000
     49.98821429	     -3.83410356	     -4.67699621	     -4.52264481	      1.08400343	      0.92976746	      0.43101030	     22.58058349	     -1.61921814	    -10.45381558	     12.98228415	     12.98228415	      2.74008294	      7.10164926	      5.53550025	      3.13002908	     -6.50600803	    -15.09268161	     14.84255364	     14.84255364	     14.84510680	     -9.26591499	     -5.84609569	     -9.32533899	      5.54553299	      1.22649635	     -5.85354029	    -13.31276530	     -4.34754956	     22.71423305	     47.37834791	      0.00000000	      0.00000000	     18.35154972	    -17.06404169	     -9.12794330	     82.06421535	     47.13741254	      0.00000000	      0.00000000
     50.00142857	     -3.85881965	     -4.61213910	     -4.35305134	      1.08576559	      0.92871284	      0.43315734	     22.33588760	     -1.39825415	    -10.77170584	     13.11952019	     13.11952019	      2.66589613	      6.96375846	      5.42074380	      2.64371940	     -6.54799798	    -14.96952589	     14.77828611	     14.77828611	     15.15772630	     -9.19118145	     -5.91152489	     -9.04392064	      5.52836116	      1.03025063	     -6.98922565	    -13.19756770	     -4.37941383	     22.41368639	     47.37986268	      0.00000000	      0.00000000	     18.39365905	    -17.28844416	     -9.34975315	     82.36549720	     47.16089527	      0.00000000	      0.00000000
     50.01464286	     -3.83617869	     -4.60582056	     -4.16605279	      1.08774996	      0.92777688	      0.43546317	     22.01012802	     -1.16278147	    -11.09008607	     13.47057312	     13.47057312	      2.66591764	      6.70040560	      5.12571670	      2.06263772	     -6.66041479	    -14.84498334	     14.66740956	     14.66740956	     15.47435519	     -9.05988253	     -5.92960659	     -8.81643273	      5.55353423	      0.95006505	     -8.10956095	    -13.04750625	     -4.40921373	     22.17214079	     47.37833971	      0.00000000	      0.00000000	     18.34110347	    -17.33244975	     -9.55730066	     82.77741535	     47.18480597	      0.00000000	      0.00000000
     50.02785714	     -3.63827688	     -4.51014397	     -4.03538908	      1.09002795	      0.92689683	      0.43803323	     21.50131442	     -0.97749057	    -10.92037803	     13.86628605	     13.86628605	      1.35931151	      5.51034251	      0.24245373	      1.29846974	     -6.75898809	    -15.22991046	     14.71119225	     14.71119225	     16.48654047	     -7.94719812	     -4.83309192	     -8.91580276	      5.42834378	      0.92872457	     -9.93664732	    -12.96963270	     -4.88284837	     24.56120273	     47.24076266	      0.00000000	      0.00000000	     17.59420865	    -16.93917584	    -10.81007800	     85.32174350	     47.36983941	      0.00000000	      0.00000000
     50.04107143	     -3.53251123	     -4.47773519	     -3.84855196	      1.09230963	      0.92607892	      0.44067799	     21.16802755	     -0.79126909	    -10.73546520	     14.55657558	     14.55657558	      0.90351267	      4.22925586	     -2.45130873	      0.67230242	     -6.91832007	    -15.30419734	     14.77217454	     14.77217454	     17.18787628	     -7.35555426	     -4.03896864	     -8.72660839	      5.41555252	      1.07967355	    -11.03490776	    -12.81668720	     -4.52058070	     24.70108872	     47.13211900	      0.00000000	      0.00000000	     17.60725551	    -16.73412241	    -10.87288099	     85.17839724	     47.44838443	      0.00000000	      0.00000000
     50.05428571	     -3.43878318	     -4.55394032	     -3.60774131	      1.09466750	      0.92552559	      0.44335250	     20.72700252	     -0.57733660	    -10.89067554	     15.15460912	     15.15460912	      1.36882917	      3.80297543	     -2.73546971	      0.07955984	     -7.18197235	    -15.13592317	     14.80819560	     14.80819560	     17.39000445	     -7.31045483	     -4.05314703	     -8.50872655	      5.51710674	      0.95207031	    -11.72718715	    -12.57498743	     -4.49937230	     24.49688802	     47.13008436	      0.00000000	      0.00000000	     17.25710412	    -16.67631324	    -10.93105898	     85.15113598	     47.45174944	      0.00000000	      0.00000000
     50.06750000	     -3.19365212	     -4.58894201	     -3.46042233	      1.09699085	      0.92518771	      0.44624147	     20.53505483	     -0.44546461	    -10.71559835	     16.49074067	     16.49074067	      1.96946233	      2.73838342	     -3.29131645	     -0.67901618	     -7.42817865	    -15.12401914	     14.88963433	     14.88963433	     17.61925271	     -7.09248475	     -3.93635815	     -8.54482797	      5.59066079	      1.08069788	    -12.21842969	    -12.41903915	     -4.48637265	     24.46718451	     47.12067565	      0.00000000	      0.00000000	     16.79398380	    -16.47690915	    -11.12894271	     85.17841980	     47.46740676	      0.00000000	      0.00000000
     50.08071429	     -3.13745069	     -4.47694390	     -3.33545034	      1.09920361	      0.92475574	      0.44932896	     20.54571274	     -0.34325707	     -9.84763349	     17.70873413	     17.70873413	      2.56410094	      0.90910366	     -3.91308027	     -1.05652294	     -7.63611378	    -15.40415620	     15.30230352	     15.30230352	     18.05544142	     -6.44131747	     -3.52274892	     -8.32706863	      5.42852395	      1.07107132	    -12.64431491	    -12.17412722	     -4.47676976	     24.81167952	     47.08737395	      0.00000000	      0.00000000	     16.29076813	    -16.12786617	    -11.70887966	     85.23682458	     47.51709548	      0.00000000	      0.00000000
     50.09392857	     -2.92682416	     -4.56709285	     -3.15483900	      1.10162677	      0.92501734	      0.45241920	     19.99836419	     -0.12453280	     -9.78046702	     18.24923673	     18.24923673	      3.18824168	      0.50834127	     -4.20950577	     -1.60284728	     -8.02231210	    -15.33827609	     15.68194431	     15.68194431	     18.09054955	     -6.41085394	     -3.43988630	     -8.27872653	      5.51766301	      1.11284783	    -12.82354892	    -11.93575479	     -4.45230383	     24.83245430	     47.07993891	      0.00000000	      0.00000000	     15.56839730	    -15.85625009	    -11.73592419	     84.97010754	     47.51201869	      0.00000000	      0.00000000
     50.10714286	     -2.83779267	     -4.59211917	     -3.03865090	      1.10370161	      0.92507593	      0.45582105	     19.88218938	      0.14183220	     -9.08526040	     19.22060217	     19.22060217	      3.84038907	     -1.06155661	     -4.35768665	     -1.62049647	     -8.57757483	    -15.72328730	     16.88434175	     16.88434175	     18.56927496	     -5.66820980	     -3.03922499	     -8.12504710	      5.52426538	      0.95534228	    -12.70713369	    -11.81562451	     -4.41939039	     25.29599749	     47.04425994	      0.00000000	      0.00000000	     14.84788479	    -15.55911114	    -12.50923711	     84.30613961	     47.56026269	      0.00000000	      0.00000000
     50.12035714	     -2.59589229	     -4.71018142	     -2.92918749	      1.10597754	      0.92582464	      0.45929415	     19.26680050	      0.48001558	     -8.79692409	     19.60147279	     19.60147279	      4.59982282	     -1.60591311	     -3.93220391	     -1.76656294	     -9.27541251	    -16.17168911	     18.22733199	     18.22733199	     19.32020143	     -4.67288331	     -1.64009327	     -8.14556484	      5.61733679	      0.92720619	    -12.50695542	    -11.75670837	     -4.03711530	     25.74996184	     46.95122023	      0.00000000	      0.00000000	     14.04960591	    -14.96300882	    -13.40846788	     83.57434896	     47.64568128	      0.00000000	      0.00000000
     50.13357143	     -2.43819723	     -4.71360670	     -2.77870715	      1.10805282	      0.92659072	      0.46267622	     18.72233003	      0.64764125	     -8.74056787	     19.89525466	     19.89525466	      5.22936235	     -1.81370603	     -4.00221329	     -1.67211079	     -9.77972436	    -15.96754481	     19.63664898	     19.63664898	     19.06441655	     -4.99545720	     -1.78909674	     -8.07075376	      5.59233965	      0.87627064	    -12.03717917	    -11.61545180	     -3.95826851	     25.96569152	     46.93186995	      0.00000000	      0.00000000	     13.17325165	    -14.75606932	    -13.42832551	     82.66851647	     47.63306172	      0.00000000	      0.00000000
     50.14678571	     -2.25322886	     -4.73007879	     -2.63412234	      1.11004700	      0.92753145	      0.46616309	     18.04900642	      0.84763207	     -8.75663770	     19.98444668	     19.98444668	      5.79373757	     -1.87963028	     -3.97087192	     -1.40520457	    -10.36773344	    -15.71007044	     21.40470414	     21.40470414	     18.67137007	     -5.43421298	     -2.13672345	     -8.01803421	      5.54899865	      0.84234026	    -11.41750769	    -11.51676835	     -3.88308784	     26.23468692	     46.91268680	      0.00000000	      0.00000000	     12.33085052	    -14.45392285	    -13.53674679	     81.47654571	     47.62001676	      0.00000000	      0.00000000
